<svg viewBox="0 0 50 50" xmlns="http://www.w3.org/2000/svg"><path d="m24.23 47.79h-1.67s-.09-.02-.13-.03c-.24-.02-.48-.03-.72-.04-1.15-.05-2.3-.18-3.43-.36-1.16-.18-2.31-.43-3.45-.71-1.07-.27-2.09-.63-3.07-1.15-1.92-1.02-3.41-2.48-4.54-4.32-.8-1.28-1.38-2.66-1.83-4.1-.56-1.77-.9-3.59-1.13-5.43-.16-1.23-.27-2.47-.33-3.7-.06-1.18-.1-2.36-.13-3.55-.07-2.54-.05-5.08-.01-7.61.02-1.46.19-2.9.55-4.32.55-2.13 1.48-4.06 2.95-5.71 1.22-1.38 2.66-2.41 4.44-2.95 1.6-.48 3.22-.82 4.87-1.05 1.39-.2 2.78-.32 4.17-.41 1.4-.09 2.81-.13 4.21-.13 1.53 0 3.06.04 4.59.16.81.06 1.63.12 2.44.21.89.1 1.77.23 2.65.37 1.26.2 2.51.49 3.72.89.9.3 1.76.66 2.53 1.23 1.47 1.08 2.62 2.43 3.49 4.03 1.16 2.13 1.72 4.42 1.83 6.83 0 .09.02.19.03.28v3.3c-.01.16-.03.31-.03.47-.02 1.7-.12 3.39-.27 5.08-.12 1.41-.29 2.81-.54 4.2-.12.7-.36 1.34-.74 1.94-.47.74-1.05 1.38-1.7 1.95-1.19 1.04-2.53 1.83-3.97 2.46-1.55.67-3.16 1.12-4.83 1.33-.96.12-1.92.22-2.89.32-1.15.12-2.31.21-3.47.25-1.9.07-3.8-.03-5.69-.23-.87-.09-1.73-.21-2.6-.33-1.1-.15-2.2-.35-3.29-.59-.12-.03-.25-.05-.38-.08 0 .05-.01.08-.01.11.01.89.11 1.77.38 2.62.44 1.38 1.29 2.42 2.59 3.08.87.44 1.81.68 2.77.82 1.17.18 2.36.23 3.54.27 1.31.04 2.62-.04 3.92-.22 1.15-.16 2.3-.38 3.42-.68.14-.04.28-.07.43-.11.06 1.25.11 2.49.17 3.74-.07.04-.13.07-.19.1-.67.31-1.36.55-2.06.77-1.43.43-2.89.71-4.37.86-.7.07-1.4.11-2.1.16-.05 0-.1.02-.15.03zm.79-33.09c-.04-.06-.07-.11-.1-.15-.35-.58-.68-1.17-1.04-1.74-.88-1.42-2.13-2.32-3.77-2.69-.72-.16-1.45-.21-2.18-.17s-1.43.16-2.11.42c-1.76.67-2.97 1.91-3.7 3.63-.48 1.14-.69 2.34-.7 3.57v9.44 2.68.2h4.7v-.26c0-3.65 0-7.29 0-10.94 0-.35.02-.71.04-1.06.02-.45.12-.89.28-1.31.31-.81.88-1.36 1.73-1.6.63-.17 1.27-.17 1.92-.05.46.09.88.26 1.25.55.45.35.74.81.94 1.33.26.67.37 1.37.37 2.08.01 2.16 0 4.32 0 6.48v.22h4.7v-.24c0-1.98 0-3.96 0-5.94 0-.37 0-.75.04-1.12.05-.58.17-1.14.41-1.67.39-.87 1.03-1.44 1.97-1.66.51-.12 1.03-.14 1.54-.08.46.05.89.18 1.28.44.52.35.84.85 1.04 1.43.2.59.25 1.2.26 1.81v11.34.24h4.72v-.26c0-3.74 0-7.48 0-11.22 0-.43-.02-.86-.04-1.29-.02-.64-.12-1.27-.27-1.89-.31-1.26-.87-2.4-1.78-3.34-.66-.68-1.43-1.19-2.31-1.52-.95-.35-1.93-.47-2.94-.42-.46.02-.92.07-1.37.18-1.64.38-2.89 1.29-3.77 2.72-.32.52-.63 1.05-.94 1.58-.05.09-.11.18-.18.29z" fill="#444"/></svg>