<svg id="Layer_1" data-name="Layer 1" xmlns="http://www.w3.org/2000/svg" viewBox="0 0 100 100"><defs><style>.cls-1,.cls-2{fill:#191717;}.cls-1{fill-rule:evenodd;}</style></defs><title>Artboard 3</title><path class="cls-1" d="M50,2A49.46,49.46,0,0,0,34.36,98.39c2.48.45,3.38-1.08,3.38-2.38s0-5.08-.06-9.21C23.92,89.79,21,81,21,81c-2.24-5.71-5.49-7.23-5.49-7.23-4.48-3.07.34-3,.34-3,5,.35,7.58,5.1,7.58,5.1,4.41,7.56,11.57,5.37,14.4,4.11A10.51,10.51,0,0,1,41,73.31c-11-1.25-22.54-5.49-22.54-24.44a19.1,19.1,0,0,1,5.1-13.27c-.52-1.25-2.21-6.28.48-13.09,0,0,4.15-1.33,13.6,5.07a47,47,0,0,1,24.77,0C71.83,21.18,76,22.51,76,22.51c2.69,6.81,1,11.84.48,13.09a19.09,19.09,0,0,1,5.09,13.27c0,19-11.57,23.18-22.58,24.41,1.77,1.53,3.35,4.54,3.35,9.15,0,6.62,0,11.95,0,13.58,0,1.31.89,2.85,3.39,2.37A49.46,49.46,0,0,0,50,2Z"/><path class="cls-2" d="M19.28,73a.63.63,0,0,1-.85.15c-.36-.16-.56-.5-.45-.74s.5-.33.86-.16.56.5.44.75Zm-.61-.45"/><path class="cls-2" d="M21.28,75.24a.75.75,0,0,1-1-.23c-.33-.34-.39-.8-.15-1s.69-.12,1,.23.39.8.14,1Zm-.47-.5"/><path class="cls-2" d="M23.23,78.09c-.3.21-.8,0-1.11-.43s-.3-1,0-1.17.8,0,1.11.41.3,1,0,1.19Zm0,0"/><path class="cls-2" d="M25.9,80.84c-.27.3-.85.22-1.27-.19a1,1,0,0,1-.28-1.26c.27-.3.85-.22,1.28.19s.56,1,.27,1.26Zm0,0"/><path class="cls-2" d="M29.59,82.44c-.12.39-.68.56-1.24.4s-.93-.62-.81-1,.67-.58,1.24-.4.92.62.81,1Zm0,0"/><path class="cls-2" d="M33.63,82.74c0,.41-.46.74-1.05.75s-1.07-.32-1.07-.72S32,82,32.56,82s1.07.31,1.07.72Zm0,0"/><path class="cls-2" d="M37.4,82.1c.07.39-.34.8-.92.91s-1.11-.14-1.18-.53.34-.82.92-.93,1.1.14,1.18.55Zm0,0"/></svg>